<svg xmlns="http://www.w3.org/2000/svg" xmlns:svg="http://www.w3.org/2000/svg" id="Layer_1" width="255" height="81" x="0" y="0" version="1.1" viewBox="0 0 255 81" xml:space="preserve"><metadata id="metadata41"/><style id="style2" type="text/css">.st1,.st2{fill-rule:evenodd;clip-rule:evenodd;fill:#fff}.st2{fill:#999}.st3{fill:#f15b24}.st4{fill:#cccccb}.st5{fill:#fff}</style><g id="g4308" transform="matrix(1.6666667,0,0,1.6666667,-51.666668,-41.500001)"><path id="path6" d="m 127.3,28.4 h 54.3 v 36.8 h -54.3 z" class="st1"/><path id="path10" d="m 180.2,25.5 h -51.4 c -2.1,0 -3.8,1.8 -3.8,3.9 v 34 c 0,2.2 1.7,3.9 3.8,3.9 h 51.4 c 2.1,0 3.8,-1.8 3.8,-3.9 v -34 c 0,-2.1 -1.7,-3.9 -3.8,-3.9 z m -0.3,37.6 c 0,0.1 -0.1,0.2 -0.2,0.2 h -50.3 c -0.1,0 -0.2,-0.1 -0.2,-0.2 V 29.8 c 0,-0.1 0.1,-0.2 0.2,-0.2 h 50.3 c 0.1,0 0.2,0.1 0.2,0.2 z" class="st2"/><path id="path12" d="m 164.4,69.9 h -4.7 v -2.6 h -9.3 v 2.6 h -4.6 c -2.1,0 -3.8,1.5 -4,3.6 h 26.6 c -0.2,-2.1 -1.9,-3.6 -4,-3.6 z" class="st2"/><path id="path16" d="m 162.9,45.6 c -1.5,-0.9 -4.3,0.2 -6.8,1.6 -0.6,-0.3 -1.3,-0.7 -1.9,-1 1.9,-1.1 3.4,-2.2 3.7,-2.5 0.2,-0.2 0.3,-0.5 0.1,-0.8 -0.2,-0.3 -0.5,-0.3 -0.7,-0.1 -1.2,0.9 -2.8,2 -4.4,2.9 -3,-1.4 -5.6,-2.3 -6.9,-1.5 -0.4,0.2 -0.9,0.8 -0.9,1.8 -0.1,1.6 0.5,2.3 1,2.6 1.5,0.9 4.3,-0.2 6.8,-1.6 0.6,0.3 1.3,0.7 1.9,1 -1.9,1.1 -3.4,2.3 -3.7,2.5 -0.2,0.2 -0.3,0.5 -0.1,0.8 0.2,0.3 0.5,0.3 0.7,0.1 1.2,-0.9 2.8,-2 4.4,-2.9 3,1.4 5.6,2.3 6.9,1.5 0.4,-0.2 0.9,-0.8 0.9,-1.8 0.1,-1.5 -0.5,-2.3 -1,-2.6 z m -16.3,2 c -0.1,-0.1 -0.6,-0.3 -0.5,-1.5 0,-0.6 0.2,-0.8 0.4,-0.9 0.3,-0.2 0.8,-0.2 1.5,-0.1 1,0.2 2.3,0.7 3.7,1.3 -2.2,1.1 -4.2,1.8 -5.1,1.2 z m 16.3,0.6 c 0,0.6 -0.2,0.8 -0.4,0.9 -0.3,0.2 -0.8,0.2 -1.5,0.1 -1,-0.2 -2.3,-0.7 -3.7,-1.3 2.2,-1.1 4.2,-1.8 5.1,-1.3 0.1,0.1 0.5,0.4 0.5,1.6 z" class="st3"/><path id="path20" d="M 54.5,24.9 C 41.5,24.9 31,35.4 31,48.4 31,61.4 41.5,71.9 54.5,71.9 67.5,71.9 78,61.4 78,48.4 78,35.4 67.4,24.9 54.5,24.9 Z m 0,31.1 c -4.2,0 -7.6,-3.4 -7.6,-7.6 0,-4.2 3.4,-7.6 7.6,-7.6 4.2,0 7.6,3.4 7.6,7.6 0,4.2 -3.4,7.6 -7.6,7.6 z" class="st4"/><path id="path24" d="m 54.5,41.3 c -3.9,0 -7.1,3.2 -7.1,7.1 0,3.9 3.2,7.1 7.1,7.1 3.9,0 7.1,-3.2 7.1,-7.1 0,-4 -3.2,-7.1 -7.1,-7.1 z m 2,7.3 c -0.2,1.2 -1.2,2 -2.4,1.8 -1.2,-0.2 -2,-1.2 -1.8,-2.4 0.2,-1.2 1.2,-2 2.4,-1.8 1.2,0.2 2,1.3 1.8,2.4 z" class="st5"/><path id="path28" d="m 95.8,48.5 c 0,1.1 -0.9,2 -1.9,2 -1,0 -1.9,-0.9 -1.9,-2 0,-1.1 0.9,-2 1.9,-2 1,0 1.9,0.9 1.9,2 z" class="st4"/><path id="path30" d="m 103.4,48.5 c 0,1.1 -0.9,2 -1.9,2 -1,0 -1.9,-0.9 -1.9,-2 0,-1.1 0.9,-2 1.9,-2 1,0 1.9,0.9 1.9,2 z" class="st4"/><path id="path32" d="m 111,48.5 c 0,1.1 -0.9,2 -1.9,2 -1,0 -1.9,-0.9 -1.9,-2 0,-1.1 0.9,-2 1.9,-2 1,0 1.9,0.9 1.9,2 z" class="st4"/></g></svg>